<mxfile host="app.diagrams.net" modified="2021-08-06T09:29:11.135Z" agent="5.0 (Macintosh; Intel Mac OS X 10_15_7) AppleWebKit/537.36 (KHTML, like Gecko) Chrome/91.0.4472.124 Safari/537.36 Edg/91.0.864.67" etag="WkY3aktuCgVK4cKZD1Pp" version="14.9.3" type="github">
  <diagram id="jyKsRtJLC4dHZMQDDO31" name="Page-1">
    <mxGraphModel dx="1186" dy="773" grid="1" gridSize="10" guides="1" tooltips="1" connect="1" arrows="1" fold="1" page="1" pageScale="1" pageWidth="827" pageHeight="1169" math="0" shadow="0">
      <root>
        <mxCell id="0" />
        <mxCell id="1" parent="0" />
        <mxCell id="y9kGSjvzgU_5oGfIcrcd-1" value="" style="rounded=1;whiteSpace=wrap;html=1;" vertex="1" parent="1">
          <mxGeometry x="184" y="280" width="460" height="140" as="geometry" />
        </mxCell>
        <mxCell id="y9kGSjvzgU_5oGfIcrcd-2" value="订单：订单号，销售，开始时间，结束时间，订单类型，订单状态，金额" style="rounded=0;whiteSpace=wrap;html=1;align=left;" vertex="1" parent="1">
          <mxGeometry x="190" y="250" width="450" height="30" as="geometry" />
        </mxCell>
        <mxCell id="y9kGSjvzgU_5oGfIcrcd-3" value="订单详情：&amp;nbsp; &amp;nbsp; &amp;nbsp; &amp;nbsp; &amp;nbsp; 权限 ，席位， 并发，限制方式，&amp;nbsp; &amp;nbsp; &amp;nbsp; &amp;nbsp; &amp;nbsp; &amp;nbsp; &amp;nbsp; &amp;nbsp; &amp;nbsp;业务容量，限流" style="rounded=0;whiteSpace=wrap;html=1;align=left;" vertex="1" parent="1">
          <mxGeometry x="190" y="280" width="450" height="40" as="geometry" />
        </mxCell>
        <mxCell id="y9kGSjvzgU_5oGfIcrcd-4" value="" style="shape=curlyBracket;whiteSpace=wrap;html=1;rounded=1;rotation=-90;" vertex="1" parent="1">
          <mxGeometry x="355" y="255" width="20" height="160" as="geometry" />
        </mxCell>
        <mxCell id="y9kGSjvzgU_5oGfIcrcd-5" value="&lt;font style=&quot;font-size: 18px&quot;&gt;...&lt;/font&gt;" style="text;html=1;align=center;verticalAlign=middle;resizable=0;points=[];autosize=1;strokeColor=none;" vertex="1" parent="1">
          <mxGeometry x="210" y="380" width="30" height="20" as="geometry" />
        </mxCell>
        <mxCell id="y9kGSjvzgU_5oGfIcrcd-6" value="账号权限粒度" style="text;html=1;align=center;verticalAlign=middle;resizable=0;points=[];autosize=1;strokeColor=none;" vertex="1" parent="1">
          <mxGeometry x="320" y="350" width="90" height="20" as="geometry" />
        </mxCell>
        <mxCell id="y9kGSjvzgU_5oGfIcrcd-7" value="" style="shape=curlyBracket;whiteSpace=wrap;html=1;rounded=1;rotation=-90;" vertex="1" parent="1">
          <mxGeometry x="560" y="275" width="20" height="120" as="geometry" />
        </mxCell>
        <mxCell id="y9kGSjvzgU_5oGfIcrcd-8" value="账号维度" style="text;html=1;align=center;verticalAlign=middle;resizable=0;points=[];autosize=1;strokeColor=none;" vertex="1" parent="1">
          <mxGeometry x="540" y="350" width="60" height="20" as="geometry" />
        </mxCell>
      </root>
    </mxGraphModel>
  </diagram>
</mxfile>
